<?xml version="1.0" encoding="UTF-8" standalone="no"?>
<!-- Created with Inkscape (http://www.inkscape.org/) -->

<svg
   xmlns:dc="http://purl.org/dc/elements/1.1/"
   xmlns:cc="http://creativecommons.org/ns#"
   xmlns:rdf="http://www.w3.org/1999/02/22-rdf-syntax-ns#"
   xmlns:svg="http://www.w3.org/2000/svg"
   xmlns="http://www.w3.org/2000/svg"
   xmlns:sodipodi="http://sodipodi.sourceforge.net/DTD/sodipodi-0.dtd"
   xmlns:inkscape="http://www.inkscape.org/namespaces/inkscape"
   id="svg2"
   version="1.1"
   inkscape:version="0.91 r"
   xml:space="preserve"
   width="798.56012"
   height="244.5415"
   viewBox="0 0 798.56012 244.54149"
   sodipodi:docname="openid-wordmark.svg"><metadata
     id="metadata8"><rdf:RDF><cc:Work
         rdf:about=""><dc:format>image/svg+xml</dc:format><dc:type
           rdf:resource="http://purl.org/dc/dcmitype/StillImage" /><dc:title></dc:title></cc:Work></rdf:RDF></metadata><defs
     id="defs6" /><sodipodi:namedview
     pagecolor="#ffffff"
     bordercolor="#666666"
     borderopacity="1"
     objecttolerance="10"
     gridtolerance="10"
     guidetolerance="10"
     inkscape:pageopacity="0"
     inkscape:pageshadow="2"
     inkscape:window-width="1600"
     inkscape:window-height="848"
     id="namedview4"
     showgrid="false"
     fit-margin-top="0"
     fit-margin-left="0"
     fit-margin-right="0"
     fit-margin-bottom="0"
     inkscape:zoom="0.89702926"
     inkscape:cx="341.16673"
     inkscape:cy="-16.896002"
     inkscape:window-x="0"
     inkscape:window-y="0"
     inkscape:window-maximized="1"
     inkscape:current-layer="g10" /><g
     id="g10"
     inkscape:groupmode="layer"
     inkscape:label="openid-wordmark"
     transform="matrix(1.25,0,0,-1.25,-335.02625,729.28738)"><g
       id="g12" /><g
       id="g14"><path
         d="m 364.021,567.7969 0,-159.9391 0,-20.0609 32,15.0609 0,180.5721 -32,-15.633 z"
         style="fill:#f8941c;fill-opacity:1;fill-rule:nonzero;stroke:none"
         id="path16"
         inkscape:connector-curvature="0" /><path
         d="m 474.8433,514.9971 4.417,-45.864 -61.883,13.464"
         style="fill:#bcbec0;fill-opacity:1;fill-rule:nonzero;stroke:none"
         id="path18"
         inkscape:connector-curvature="0" /><path
         d="m 300.021,456.3047 c 0,22.674 24.707,41.769 58.383,47.598 l 0,20.325 c -51.51,-6.226 -90.383,-34.267 -90.383,-67.923 0,-34.869 41.725,-63.709 96,-68.508 l 0,20.061 c -36.516,4.578 -64,24.528 -64,48.447 m 101.617,67.915 0,-20.317 c 13.399,-2.319 25.385,-6.727 34.9511,-12.64 l 22.6269,13.984 c -15.42,9.531 -35.322,16.283 -57.578,18.973"
         style="fill:#bcbec0;fill-opacity:1;fill-rule:nonzero;stroke:none"
         id="path20"
         inkscape:connector-curvature="0" /><path
         d="m 526.0762,452.499 c 1.155,-4.336 2.973,-8.238 5.451,-11.707 2.477,-3.469 5.655,-6.256 9.538,-8.361 3.881,-2.106 8.505,-3.159 13.8739,-3.159 5.3681,0 9.9911,1.053 13.875,3.159 3.8811,2.105 7.0611,4.892 9.5371,8.361 2.479,3.469 4.294,7.371 5.452,11.707 1.156,4.335 1.734,8.733 1.734,13.193 0,4.459 -0.578,8.857 -1.734,13.193 -1.158,4.336 -2.973,8.238 -5.452,11.706 -2.476,3.469 -5.656,6.256 -9.5371,8.362 -3.8839,2.106 -8.5069,3.159 -13.875,3.159 -5.3689,0 -9.9929,-1.053 -13.8739,-3.159 -3.883,-2.106 -7.061,-4.893 -9.538,-8.362 -2.478,-3.468 -4.296,-7.37 -5.451,-11.706 -1.158,-4.336 -1.734,-8.734 -1.734,-13.193 0,-4.46 0.576,-8.858 1.734,-13.193 m -10.839,30.598 c 1.7749,5.574 4.438,10.508 7.99,14.803 3.55,4.293 7.969,7.721 13.255,10.282 5.284,2.558 11.437,3.84 18.4569,3.84 7.0191,0 13.1721,-1.282 18.4571,-3.84 5.285,-2.561 9.704,-5.989 13.256,-10.282 3.5499,-4.295 6.213,-9.229 7.99,-14.803 1.775,-5.575 2.663,-11.378 2.663,-17.405 0,-6.029 -0.888,-11.831 -2.663,-17.405 -1.777,-5.575 -4.4401,-10.511 -7.99,-14.804 -3.552,-4.295 -7.971,-7.701 -13.256,-10.218 -5.285,-2.52 -11.438,-3.78 -18.4571,-3.78 -7.0199,0 -13.1729,1.26 -18.4569,3.78 -5.286,2.517 -9.705,5.923 -13.255,10.218 -3.552,4.293 -6.2151,9.229 -7.99,14.804 -1.7771,5.574 -2.664,11.376 -2.664,17.405 0,6.027 0.8869,11.83 2.664,17.405"
         style="fill:#232020;fill-opacity:1;fill-rule:nonzero;stroke:none"
         id="path22"
         inkscape:connector-curvature="0" /><path
         d="m 654.9697,462.7808 c -0.786,2.849 -1.9811,5.389 -3.5931,7.618 -1.6099,2.23 -3.6759,4.005 -6.1929,5.327 -2.521,1.32 -5.473,1.982 -8.858,1.982 -3.5501,0 -6.565,-0.702 -9.043,-2.106 -2.477,-1.405 -4.501,-3.242 -6.0701,-5.512 -1.5689,-2.273 -2.7059,-4.852 -3.406,-7.743 -0.703,-2.892 -1.0529,-5.822 -1.0529,-8.795 0,-3.139 0.3709,-6.174 1.114,-9.105 0.744,-2.932 1.9209,-5.512 3.531,-7.743 1.6109,-2.228 3.695,-4.025 6.256,-5.388 2.5579,-1.362 5.656,-2.043 9.291,-2.043 3.6319,0 6.6679,0.701 9.105,2.105 2.435,1.404 4.398,3.262 5.884,5.574 1.487,2.313 2.559,4.955 3.2209,7.928 0.6601,2.973 0.9911,6.027 0.9911,9.168 0,2.973 -0.393,5.883 -1.177,8.733 m -37.8451,22.731 0,-8.671 0.2481,0 c 1.735,3.549 4.459,6.132 8.1759,7.743 3.7171,1.61 7.805,2.415 12.2641,2.415 4.9549,0 9.269,-0.91 12.945,-2.725 3.6739,-1.818 6.7309,-4.274 9.167,-7.371 2.435,-3.097 4.274,-6.67 5.513,-10.715 1.238,-4.048 1.858,-8.343 1.858,-12.884 0,-4.543 -0.6,-8.838 -1.796,-12.883 -1.199,-4.047 -3.0161,-7.578 -5.4511,-10.592 -2.4369,-3.015 -5.4939,-5.388 -9.1669,-7.123 -3.676,-1.734 -7.9501,-2.601 -12.821,-2.601 -1.57,0 -3.326,0.166 -5.265,0.496 -1.9421,0.332 -3.862,0.867 -5.761,1.611 -1.9001,0.742 -3.696,1.752 -5.388,3.033 -1.6941,1.282 -3.117,2.869 -4.274,4.77 l -0.2481,0 0,-32.951 -10.529,0 0,88.448 10.529,0 z"
         style="fill:#232020;fill-opacity:1;fill-rule:nonzero;stroke:none"
         id="path24"
         inkscape:connector-curvature="0" /><path
         d="m 720.0039,466.6826 c -0.949,2.23 -2.23,4.15 -3.842,5.76 -1.609,1.611 -3.51,2.89 -5.697,3.841 -2.19,0.948 -4.604,1.424 -7.246,1.424 -2.725,0 -5.184,-0.476 -7.369,-1.424 -2.191,-0.951 -4.071,-2.252 -5.639,-3.902 -1.57,-1.654 -2.809,-3.574 -3.717,-5.761 -0.908,-2.189 -1.445,-4.521 -1.609,-6.999 l 36.791,0 c -0.166,2.478 -0.723,4.832 -1.672,7.061 m 2.539,-41.127 c -4.791,-3.635 -10.82,-5.451 -18.086,-5.451 -5.121,0 -9.558,0.828 -13.316,2.478 -3.759,1.651 -6.918,3.963 -9.477,6.938 -2.56,2.973 -4.48,6.521 -5.76,10.652 -1.282,4.129 -2.004,8.629 -2.168,13.503 0,4.872 0.743,9.331 2.229,13.379 1.487,4.045 3.572,7.556 6.257,10.529 2.682,2.974 5.862,5.284 9.538,6.937 3.674,1.652 7.699,2.478 12.078,2.478 5.697,0 10.426,-1.176 14.184,-3.531 3.755,-2.353 6.771,-5.347 9.043,-8.981 2.269,-3.635 3.839,-7.599 4.709,-11.891 0.865,-4.296 1.216,-8.384 1.052,-12.265 l -47.941,0 c -0.084,-2.808 0.248,-5.472 0.99,-7.99 0.744,-2.519 1.941,-4.75 3.594,-6.689 1.65,-1.942 3.758,-3.49 6.316,-4.645 2.561,-1.158 5.576,-1.734 9.045,-1.734 4.459,0 8.111,1.031 10.963,3.096 2.848,2.064 4.725,5.203 5.635,9.416 l 10.406,0 c -1.406,-7.186 -4.504,-12.596 -9.291,-16.229"
         style="fill:#232020;fill-opacity:1;fill-rule:nonzero;stroke:none"
         id="path26"
         inkscape:connector-curvature="0" /><path
         d="m 749.9199,485.5122 0,-10.158 0.2459,0 c 4.377,7.762 11.315,11.644 20.8131,11.644 4.211,0 7.72,-0.579 10.529,-1.734 2.807,-1.157 5.078,-2.768 6.8139,-4.831 1.7331,-2.066 2.9521,-4.521 3.6531,-7.371 0.7009,-2.849 1.052,-6.008 1.052,-9.476 l 0,-42.118 -10.529,0 0,43.356 c 0,3.965 -1.156,7.102 -3.467,9.415 -2.312,2.312 -5.494,3.468 -9.541,3.468 -3.218,0 -6.0071,-0.495 -8.3611,-1.486 -2.354,-0.991 -4.3159,-2.396 -5.883,-4.212 -1.57,-1.817 -2.7479,-3.944 -3.531,-6.379 -0.7849,-2.437 -1.1759,-5.101 -1.1759,-7.99 l 0,-36.172 -10.529,0 0,64.044 9.91,0 z"
         style="fill:#232020;fill-opacity:1;fill-rule:nonzero;stroke:none"
         id="path28"
         inkscape:connector-curvature="0" /><path
         d="m 807.3961,421.468 13.008,0 0,88.448 -13.008,0 0,-88.448 z"
         style="fill:#232020;fill-opacity:1;fill-rule:nonzero;stroke:none"
         id="path30"
         inkscape:connector-curvature="0" /><path
         d="m 865.3691,431.3779 c 1.322,0 2.975,0.104 4.955,0.311 1.983,0.205 4.09,0.699 6.318,1.486 2.231,0.783 4.44,1.92 6.627,3.406 2.188,1.486 4.153,3.51 5.883,6.07 1.737,2.559 3.16,5.76 4.276,9.6 1.115,3.84 1.671,8.486 1.671,13.937 0,5.284 -0.517,10.012 -1.546,14.183 -1.034,4.17 -2.725,7.721 -5.08,10.653 -2.354,2.931 -5.387,5.161 -9.104,6.69 -3.717,1.527 -8.301,2.292 -13.752,2.292 l -19.82,0 0,-68.628 19.572,0 z m -0.992,78.538 c 13.627,0 24.115,-3.468 31.467,-10.406 7.349,-6.937 11.025,-17.509 11.025,-31.713 0,-7.432 -0.828,-14.019 -2.479,-19.757 -1.652,-5.742 -4.21,-10.572 -7.679,-14.494 -3.469,-3.924 -7.887,-6.918 -13.256,-8.981 -5.369,-2.066 -11.727,-3.097 -19.078,-3.097 l -30.35,0 0,88.448 30.35,0 z"
         style="fill:#232020;fill-opacity:1;fill-rule:nonzero;stroke:none"
         id="path32"
         inkscape:connector-curvature="0" /><path
         d="m 364.021,567.7969 0,-159.9391 0,-20.0609 32,15.0609 0,180.5721 -32,-15.633 z"
         style="fill:#f8941c;fill-opacity:1;fill-rule:nonzero;stroke:none"
         id="path34"
         inkscape:connector-curvature="0" /><path
         d="m 474.8433,514.9971 4.417,-45.864 -61.883,13.464"
         style="fill:#bcbec0;fill-opacity:1;fill-rule:nonzero;stroke:none"
         id="path36"
         inkscape:connector-curvature="0" /><path
         d="m 300.021,456.3047 c 0,22.674 24.707,41.769 58.383,47.598 l 0,20.325 c -51.51,-6.226 -90.383,-34.267 -90.383,-67.923 0,-34.869 41.725,-63.709 96,-68.508 l 0,20.061 c -36.516,4.578 -64,24.528 -64,48.447 m 101.617,67.915 0,-20.317 c 13.399,-2.319 25.385,-6.727 34.9511,-12.64 l 22.6269,13.984 c -15.42,9.531 -35.322,16.283 -57.578,18.973"
         style="fill:#bcbec0;fill-opacity:1;fill-rule:nonzero;stroke:none"
         id="path38"
         inkscape:connector-curvature="0" /><path
         d="m 526.0762,452.499 c 1.155,-4.336 2.973,-8.238 5.451,-11.707 2.477,-3.469 5.655,-6.256 9.538,-8.361 3.881,-2.106 8.505,-3.159 13.8739,-3.159 5.3681,0 9.9911,1.053 13.875,3.159 3.8811,2.105 7.0611,4.892 9.5371,8.361 2.479,3.469 4.294,7.371 5.452,11.707 1.156,4.335 1.734,8.733 1.734,13.193 0,4.459 -0.578,8.857 -1.734,13.193 -1.158,4.336 -2.973,8.238 -5.452,11.706 -2.476,3.469 -5.656,6.256 -9.5371,8.362 -3.8839,2.106 -8.5069,3.159 -13.875,3.159 -5.3689,0 -9.9929,-1.053 -13.8739,-3.159 -3.883,-2.106 -7.061,-4.893 -9.538,-8.362 -2.478,-3.468 -4.296,-7.37 -5.451,-11.706 -1.158,-4.336 -1.734,-8.734 -1.734,-13.193 0,-4.46 0.576,-8.858 1.734,-13.193 m -10.839,30.598 c 1.7749,5.574 4.438,10.508 7.99,14.803 3.55,4.293 7.969,7.721 13.255,10.282 5.284,2.558 11.437,3.84 18.4569,3.84 7.0191,0 13.1721,-1.282 18.4571,-3.84 5.285,-2.561 9.704,-5.989 13.256,-10.282 3.5499,-4.295 6.213,-9.229 7.99,-14.803 1.775,-5.575 2.663,-11.378 2.663,-17.405 0,-6.029 -0.888,-11.831 -2.663,-17.405 -1.777,-5.575 -4.4401,-10.511 -7.99,-14.804 -3.552,-4.295 -7.971,-7.701 -13.256,-10.218 -5.285,-2.52 -11.438,-3.78 -18.4571,-3.78 -7.0199,0 -13.1729,1.26 -18.4569,3.78 -5.286,2.517 -9.705,5.923 -13.255,10.218 -3.552,4.293 -6.2151,9.229 -7.99,14.804 -1.7771,5.574 -2.664,11.376 -2.664,17.405 0,6.027 0.8869,11.83 2.664,17.405"
         style="fill:#232020;fill-opacity:1;fill-rule:nonzero;stroke:none"
         id="path40"
         inkscape:connector-curvature="0" /><path
         d="m 654.9697,462.7808 c -0.786,2.849 -1.9811,5.389 -3.5931,7.618 -1.6099,2.23 -3.6759,4.005 -6.1929,5.327 -2.521,1.32 -5.473,1.982 -8.858,1.982 -3.5501,0 -6.565,-0.702 -9.043,-2.106 -2.477,-1.405 -4.501,-3.242 -6.0701,-5.512 -1.5689,-2.273 -2.7059,-4.852 -3.406,-7.743 -0.703,-2.892 -1.0529,-5.822 -1.0529,-8.795 0,-3.139 0.3709,-6.174 1.114,-9.105 0.744,-2.932 1.9209,-5.512 3.531,-7.743 1.6109,-2.228 3.695,-4.025 6.256,-5.388 2.5579,-1.362 5.656,-2.043 9.291,-2.043 3.6319,0 6.6679,0.701 9.105,2.105 2.435,1.404 4.398,3.262 5.884,5.574 1.487,2.313 2.559,4.955 3.2209,7.928 0.6601,2.973 0.9911,6.027 0.9911,9.168 0,2.973 -0.393,5.883 -1.177,8.733 m -37.8451,22.731 0,-8.671 0.2481,0 c 1.735,3.549 4.459,6.132 8.1759,7.743 3.7171,1.61 7.805,2.415 12.2641,2.415 4.9549,0 9.269,-0.91 12.945,-2.725 3.6739,-1.818 6.7309,-4.274 9.167,-7.371 2.435,-3.097 4.274,-6.67 5.513,-10.715 1.238,-4.048 1.858,-8.343 1.858,-12.884 0,-4.543 -0.6,-8.838 -1.796,-12.883 -1.199,-4.047 -3.0161,-7.578 -5.4511,-10.592 -2.4369,-3.015 -5.4939,-5.388 -9.1669,-7.123 -3.676,-1.734 -7.9501,-2.601 -12.821,-2.601 -1.57,0 -3.326,0.166 -5.265,0.496 -1.9421,0.332 -3.862,0.867 -5.761,1.611 -1.9001,0.742 -3.696,1.752 -5.388,3.033 -1.6941,1.282 -3.117,2.869 -4.274,4.77 l -0.2481,0 0,-32.951 -10.529,0 0,88.448 10.529,0 z"
         style="fill:#232020;fill-opacity:1;fill-rule:nonzero;stroke:none"
         id="path42"
         inkscape:connector-curvature="0" /><path
         d="m 720.0039,466.6826 c -0.949,2.23 -2.23,4.15 -3.842,5.76 -1.609,1.611 -3.51,2.89 -5.697,3.841 -2.19,0.948 -4.604,1.424 -7.246,1.424 -2.725,0 -5.184,-0.476 -7.369,-1.424 -2.191,-0.951 -4.071,-2.252 -5.639,-3.902 -1.57,-1.654 -2.809,-3.574 -3.717,-5.761 -0.908,-2.189 -1.445,-4.521 -1.609,-6.999 l 36.791,0 c -0.166,2.478 -0.723,4.832 -1.672,7.061 m 2.539,-41.127 c -4.791,-3.635 -10.82,-5.451 -18.086,-5.451 -5.121,0 -9.558,0.828 -13.316,2.478 -3.759,1.651 -6.918,3.963 -9.477,6.938 -2.56,2.973 -4.48,6.521 -5.76,10.652 -1.282,4.129 -2.004,8.629 -2.168,13.503 0,4.872 0.743,9.331 2.229,13.379 1.487,4.045 3.572,7.556 6.257,10.529 2.682,2.974 5.862,5.284 9.538,6.937 3.674,1.652 7.699,2.478 12.078,2.478 5.697,0 10.426,-1.176 14.184,-3.531 3.755,-2.353 6.771,-5.347 9.043,-8.981 2.269,-3.635 3.839,-7.599 4.709,-11.891 0.865,-4.296 1.216,-8.384 1.052,-12.265 l -47.941,0 c -0.084,-2.808 0.248,-5.472 0.99,-7.99 0.744,-2.519 1.941,-4.75 3.594,-6.689 1.65,-1.942 3.758,-3.49 6.316,-4.645 2.561,-1.158 5.576,-1.734 9.045,-1.734 4.459,0 8.111,1.031 10.963,3.096 2.848,2.064 4.725,5.203 5.635,9.416 l 10.406,0 c -1.406,-7.186 -4.504,-12.596 -9.291,-16.229"
         style="fill:#232020;fill-opacity:1;fill-rule:nonzero;stroke:none"
         id="path44"
         inkscape:connector-curvature="0" /><path
         d="m 749.9199,485.5122 0,-10.158 0.2459,0 c 4.377,7.762 11.315,11.644 20.8131,11.644 4.211,0 7.72,-0.579 10.529,-1.734 2.807,-1.157 5.078,-2.768 6.8139,-4.831 1.7331,-2.066 2.9521,-4.521 3.6531,-7.371 0.7009,-2.849 1.052,-6.008 1.052,-9.476 l 0,-42.118 -10.529,0 0,43.356 c 0,3.965 -1.156,7.102 -3.467,9.415 -2.312,2.312 -5.494,3.468 -9.541,3.468 -3.218,0 -6.0071,-0.495 -8.3611,-1.486 -2.354,-0.991 -4.3159,-2.396 -5.883,-4.212 -1.57,-1.817 -2.7479,-3.944 -3.531,-6.379 -0.7849,-2.437 -1.1759,-5.101 -1.1759,-7.99 l 0,-36.172 -10.529,0 0,64.044 9.91,0 z"
         style="fill:#232020;fill-opacity:1;fill-rule:nonzero;stroke:none"
         id="path46"
         inkscape:connector-curvature="0" /><path
         d="m 807.3961,421.468 13.008,0 0,88.448 -13.008,0 0,-88.448 z"
         style="fill:#232020;fill-opacity:1;fill-rule:nonzero;stroke:none"
         id="path48"
         inkscape:connector-curvature="0" /><path
         d="m 865.3691,431.3779 c 1.322,0 2.975,0.104 4.955,0.311 1.983,0.205 4.09,0.699 6.318,1.486 2.231,0.783 4.44,1.92 6.627,3.406 2.188,1.486 4.153,3.51 5.883,6.07 1.737,2.559 3.16,5.76 4.276,9.6 1.115,3.84 1.671,8.486 1.671,13.937 0,5.284 -0.517,10.012 -1.546,14.183 -1.034,4.17 -2.725,7.721 -5.08,10.653 -2.354,2.931 -5.387,5.161 -9.104,6.69 -3.717,1.527 -8.301,2.292 -13.752,2.292 l -19.82,0 0,-68.628 19.572,0 z m -0.992,78.538 c 13.627,0 24.115,-3.468 31.467,-10.406 7.349,-6.937 11.025,-17.509 11.025,-31.713 0,-7.432 -0.828,-14.019 -2.479,-19.757 -1.652,-5.742 -4.21,-10.572 -7.679,-14.494 -3.469,-3.924 -7.887,-6.918 -13.256,-8.981 -5.369,-2.066 -11.727,-3.097 -19.078,-3.097 l -30.35,0 0,88.448 30.35,0 z"
         style="fill:#232020;fill-opacity:1;fill-rule:nonzero;stroke:none"
         id="path50"
         inkscape:connector-curvature="0" /></g></g></svg>